<?xml version="1.0" standalone="no"?><!DOCTYPE svg PUBLIC "-//W3C//DTD SVG 1.1//EN" "http://www.w3.org/Graphics/SVG/1.1/DTD/svg11.dtd"><svg t="1744642050107" class="icon" viewBox="0 0 1024 1024" version="1.1" xmlns="http://www.w3.org/2000/svg" p-id="12079" xmlns:xlink="http://www.w3.org/1999/xlink" width="200" height="200"><path d="M935.563636 418.909091c0-230.4-188.509091-418.909091-418.909091-418.909091S97.745455 188.509091 97.745455 418.909091c0 146.618182 74.472727 274.618182 188.50909 349.090909h-2.327272c67.490909 46.545455 237.381818 93.090909 237.381818 256 0-162.909091 162.909091-209.454545 228.072727-256h-2.327273c114.036364-74.472727 188.509091-202.472727 188.509091-349.090909z" fill="#ff5855" p-id="12080"></path>
  <path stroke="null" id="svg_1" p-id="18127" d="m504.01902,686.39111c-112.80319,0 -174.19575,-61.84287 -176.74751,-64.46969l-4.12786,-4.27797l0,-203.84129l20.18899,8.10562c24.54201,9.90687 51.33558,18.76301 82.33207,29.04513c11.2578,3.7526 23.04097,7.65531 35.3495,11.78317c23.41623,8.25572 56.28902,12.75884 78.95473,0.90062l1.27588,-0.60042c14.56009,-5.92911 32.19732,-14.03473 50.81022,-22.66571c19.21332,-8.85614 41.05346,-18.91311 63.49401,-28.44472l20.41415,-8.63098l0,214.19847l-4.12786,4.35302c-2.47672,2.62682 -62.51834,64.54474 -167.81632,64.54474zm-151.53003,-81.13124c14.56009,12.45864 67.17156,51.7859 151.53003,51.7859c78.35431,0 128.48906,-39.1021 142.52379,-51.63579l0,-157.45914c-14.78525,6.52953 -29.12018,13.1341 -42.17924,19.21332c-18.68795,8.63098 -36.40023,16.7366 -51.41064,22.96592c-26.34326,13.43431 -64.24453,13.65947 -101.54539,0.52536c-12.08338,-4.12786 -23.79149,-7.95551 -34.97424,-11.70812c-23.34118,-7.73036 -44.28069,-14.7102 -63.86927,-21.91519l0,148.22775l-0.07505,0zm406.48176,-120.6086l-70.99921,-53.06178l30.02081,-33.4732l0,-47.50793c-35.3495,14.40999 -62.8936,25.51769 -85.70941,34.82414c-45.48153,18.38775 -68.29734,27.61914 -85.48425,35.3495c-30.17091,13.43431 -54.18756,14.10978 -85.70941,2.40166c-1.42599,-0.52536 -144.47514,-53.9624 -216.52509,-88.03602c-25.51769,-12.08338 -42.32934,-23.64139 -41.57882,-40.9784c0.82557,-18.31269 21.38983,-28.36966 43.53017,-36.62539c30.39607,-11.40791 69.49817,-26.41831 107.32439,-40.90335c38.05138,-14.56009 74.07635,-28.36966 100.56971,-38.35158l0.60042,-0.22516c32.19732,-12.90895 53.51209,-21.38983 87.73581,-4.57817c24.76717,10.13202 66.9464,25.29253 111.60236,41.35366c47.50793,17.11186 96.59195,34.74909 127.06307,47.20772l0.30021,0.1501c18.4628,7.95551 35.49961,17.48712 35.87487,33.24805c0.37526,15.08546 -13.95968,22.06529 -24.39191,27.16883c0,0 -0.07505,0 -0.07505,0.07505l0,76.25286l27.91935,31.97216l-62.06802,53.73725zm-27.6942,-57.4148l26.34326,19.66363l21.84014,-18.98816l-15.76092,-18.08754l0,-104.32231l6.90479,-4.27797c3.00208,-1.8763 6.37942,-3.52745 9.68171,-5.10354l2.10146,-1.05073c-2.85198,-1.57609 -6.75468,-3.6025 -12.23348,-5.92911c-29.94576,-12.23348 -78.65452,-29.79565 -125.78719,-46.75741c-45.25637,-16.28629 -87.96097,-31.67195 -113.2535,-42.02913l-0.97568,-0.45031c-22.74076,-11.33286 -34.07362,-6.82973 -64.24453,5.25364l-1.05073,0.45031c-26.41831,9.90687 -62.36823,23.71644 -100.49466,38.27653c-37.82622,14.48504 -77.00338,29.49545 -107.54955,40.9784c-12.90895,4.80333 -19.28837,8.33077 -22.3655,10.43223c3.00208,2.47672 9.3815,6.75468 22.74076,13.05905c70.84911,33.54825 212.77249,86.53498 214.19847,87.06035c24.31686,9.08129 40.30294,8.63098 63.41896,-1.7262c17.63723,-7.88046 40.6782,-17.18691 86.45993,-35.72476c27.01873,-10.9576 60.56698,-24.54201 105.8984,-43.00481l20.26405,-8.25572l0,102.44601l-16.13618,18.08754z" fill="#FFFFFF"/>
</svg>