<?xml version="1.0" standalone="no"?><!DOCTYPE svg PUBLIC "-//W3C//DTD SVG 1.1//EN" "http://www.w3.org/Graphics/SVG/1.1/DTD/svg11.dtd"><svg t="1744642050107" class="icon" viewBox="0 0 1024 1024" version="1.1" xmlns="http://www.w3.org/2000/svg" p-id="12079" xmlns:xlink="http://www.w3.org/1999/xlink" width="200" height="200"><path d="M935.563636 418.909091c0-230.4-188.509091-418.909091-418.909091-418.909091S97.745455 188.509091 97.745455 418.909091c0 146.618182 74.472727 274.618182 188.50909 349.090909h-2.327272c67.490909 46.545455 237.381818 93.090909 237.381818 256 0-162.909091 162.909091-209.454545 228.072727-256h-2.327273c114.036364-74.472727 188.509091-202.472727 188.509091-349.090909z" fill="#7513e2" p-id="12080"></path>
  <path stroke="null" id="svg_2" p-id="14025" fill="#FFFFFF" d="m415.66667,476.19999c44.8,0 76.8,-32 76.8,-76.8c0,-44.8 -38.4,-76.8 -76.8,-76.8s-83.2,32 -83.2,76.8c0,44.8 38.4,76.8 83.2,76.8z"/>
  <path stroke="null" id="svg_3" p-id="14026" fill="#FFFFFF" d="m700.71111,320.95409l-191.03333,0l0,166.58361l-191.03333,0l0,-212.53771l-46.31111,0l0,350.4l46.31111,0l0,-68.93115l428.37778,0l0,68.93115l46.31111,0l0,-206.79344c0,-51.69836 -40.52222,-97.65246 -92.62222,-97.65246z"/></svg>