<?xml version="1.0" standalone="no"?><!DOCTYPE svg PUBLIC "-//W3C//DTD SVG 1.1//EN" "http://www.w3.org/Graphics/SVG/1.1/DTD/svg11.dtd"><svg t="1744642050107" class="icon" viewBox="0 0 1024 1024" version="1.1" xmlns="http://www.w3.org/2000/svg" p-id="12079" xmlns:xlink="http://www.w3.org/1999/xlink" width="200" height="200"><path d="M935.563636 418.909091c0-230.4-188.509091-418.909091-418.909091-418.909091S97.745455 188.509091 97.745455 418.909091c0 146.618182 74.472727 274.618182 188.50909 349.090909h-2.327272c67.490909 46.545455 237.381818 93.090909 237.381818 256 0-162.909091 162.909091-209.454545 228.072727-256h-2.327273c114.036364-74.472727 188.509091-202.472727 188.509091-349.090909z" fill="#645d5c" p-id="12080"></path><path d="M409.6 193.163636c-30.254545 0-53.527273 25.6-53.527273 55.854546 0 30.254545 23.272727 55.854545 53.527273 55.854545 30.254545 0 53.527273-25.6 53.527273-55.854545 0-32.581818-23.272727-55.854545-53.527273-55.854546z m67.490909 128h-137.309091c-23.272727 0-27.927273 23.272727-27.927273 27.927273v158.254546c0 9.309091 41.890909 13.963636 41.89091 25.6v109.381818c0 4.654545 4.654545 9.309091 9.30909 9.309091H453.818182c4.654545 0 9.309091-4.654545 9.309091-9.309091v-109.381818c0-13.963636 41.890909-13.963636 41.890909-25.6V349.090909c0-4.654545-2.327273-27.927273-27.927273-27.927273z m155.927273-128c-30.254545 0-53.527273 25.6-53.527273 55.854546 0 30.254545 23.272727 55.854545 53.527273 55.854545 30.254545 0 53.527273-25.6 53.527273-55.854545 2.327273-32.581818-23.272727-55.854545-53.527273-55.854546z m2.327273 128h-2.327273c-23.272727 0-44.218182 16.290909-51.2 37.236364l-65.163637 179.2c-2.327273 6.981818 2.327273 11.636364 9.309091 11.636364h60.509091c4.654545 0 9.309091 4.654545 9.309091 9.309091v81.454545c0 4.654545 4.654545 9.309091 9.309091 9.309091h62.836364c4.654545 0 9.309091-4.654545 9.309091-9.309091V558.545455c0-4.654545 4.654545-9.309091 9.309091-9.309091h60.50909c6.981818 0 11.636364-6.981818 9.309091-11.636364l-69.818181-179.2c-6.981818-20.945455-27.927273-37.236364-51.2-37.236364z m0 0" fill="#FFFFFF" p-id="12081"></path></svg>